<?xml version="1.0" encoding="UTF-8"?>
<!DOCTYPE svg PUBLIC "-//W3C//DTD SVG 1.1//EN" "http://www.w3.org/Graphics/SVG/1.1/DTD/svg11.dtd">
<svg xmlns="http://www.w3.org/2000/svg" version="1.1" width="257px" height="222px" style="shape-rendering:geometricPrecision; text-rendering:geometricPrecision; image-rendering:optimizeQuality; fill-rule:evenodd; clip-rule:evenodd" xmlns:xlink="http://www.w3.org/1999/xlink">
<g><path style="opacity:0.99" fill="#f47526" d="M 120.5,15.5 C 121.832,23.9738 122.498,32.8071 122.5,42C 122.5,51.0064 122.166,59.8398 121.5,68.5C 106.451,56.3038 91.7844,43.6372 77.5,30.5C 90.4903,21.7251 104.824,16.7251 120.5,15.5 Z"/></g>
<g><path style="opacity:0.361" fill="#fcb584" d="M 120.5,15.5 C 121.209,14.596 122.209,14.2627 123.5,14.5C 123.833,32.8454 123.5,51.1788 122.5,69.5C 121.893,69.3764 121.56,69.0431 121.5,68.5C 122.166,59.8398 122.5,51.0064 122.5,42C 122.498,32.8071 121.832,23.9738 120.5,15.5 Z"/></g>
<g><path style="opacity:0.994" fill="#f47323" d="M 137.5,14.5 C 184.962,21.1281 214.129,47.7948 225,94.5C 229.854,139.292 213.02,173.126 174.5,196C 163.112,201.63 151.112,205.13 138.5,206.5C 137.5,142.503 137.167,78.5035 137.5,14.5 Z"/></g>
<g><path style="opacity:0.986" fill="#f47628" d="M 122.5,88.5 C 122.827,98.3478 122.494,108.014 121.5,117.5C 97.7058,97.5436 74.0391,77.3769 50.5,57C 54.9234,50.5725 60.0901,44.7392 66,39.5C 85.0259,55.6983 103.859,72.0317 122.5,88.5 Z"/></g>
<g><path style="opacity:0.987" fill="#f47628" d="M 122.5,136.5 C 122.827,146.015 122.494,155.348 121.5,164.5C 94.3727,141.877 67.3727,119.044 40.5,96C 38.3234,94.5028 36.99,92.5028 36.5,90C 37.822,82.6973 40.322,75.864 44,69.5C 70.3332,91.6687 96.4999,114.002 122.5,136.5 Z"/></g>
<g><path style="opacity:0.361" fill="#fcb583" d="M 122.5,88.5 C 123.823,98.3411 123.823,108.341 122.5,118.5C 121.893,118.376 121.56,118.043 121.5,117.5C 122.494,108.014 122.827,98.3478 122.5,88.5 Z"/></g>
<g><path style="opacity:0.561" fill="#fcac75" d="M 36.5,110.5 C 35.5166,114.298 35.1832,118.298 35.5,122.5C 34.3516,118.019 34.1849,113.352 35,108.5C 35.7172,109.044 36.2172,109.711 36.5,110.5 Z"/></g>
<g><path style="opacity:0.991" fill="#f47526" d="M 36.5,110.5 C 64.8333,134.5 93.1667,158.5 121.5,182.5C 122.102,186.617 122.435,190.784 122.5,195C 122.488,198.902 121.821,202.402 120.5,205.5C 79.0474,199.89 51.5474,177.223 38,137.5C 36.584,132.588 35.7507,127.588 35.5,122.5C 35.1832,118.298 35.5166,114.298 36.5,110.5 Z"/></g>
<g><path style="opacity:0.078" fill="#c5c5d3" d="M 256.5,130.5 C 256.5,131.167 256.5,131.833 256.5,132.5C 255.167,131.833 255.167,131.167 256.5,130.5 Z"/></g>
<g><path style="opacity:0.361" fill="#fcb686" d="M 122.5,136.5 C 123.823,146.008 123.823,155.675 122.5,165.5C 121.893,165.376 121.56,165.043 121.5,164.5C 122.494,155.348 122.827,146.015 122.5,136.5 Z"/></g>
<g><path style="opacity:0.361" fill="#fcb888" d="M 121.5,182.5 C 122.117,182.611 122.617,182.944 123,183.5C 123.5,191.159 123.666,198.826 123.5,206.5C 122.209,206.737 121.209,206.404 120.5,205.5C 121.821,202.402 122.488,198.902 122.5,195C 122.435,190.784 122.102,186.617 121.5,182.5 Z"/></g>
</svg>
